HIERARCHY
ROOT root
{
	OFFSET 0.000000 0.000000 0.000000
	CHANNELS 6 Xposition Yposition Zposition Zrotation Yrotation Xrotation
	JOINT lhip
	{
		OFFSET 0.058581 -0.082280 -0.017664
		CHANNELS 3 Zrotation Yrotation Xrotation
		JOINT lknee
		{
			OFFSET 0.043451 -0.386469 0.008037
			CHANNELS 3 Zrotation Yrotation Xrotation
			JOINT lankle
			{
				OFFSET -0.014790 -0.426874 -0.037428
				CHANNELS 3 Zrotation Yrotation Xrotation
				JOINT ltoe
				{
					OFFSET 0.041054 -0.060286 0.122042
					CHANNELS 3 Zrotation Yrotation Xrotation
					End Site
					{
						OFFSET 0.000000 0.000000 0.000000
					}
				}
			}
		}
	}
	JOINT rhip
	{
		OFFSET -0.060310 -0.090513 -0.013543
		CHANNELS 3 Zrotation Yrotation Xrotation
		JOINT rknee
		{
			OFFSET -0.043257 -0.383688 -0.004843
			CHANNELS 3 Zrotation Yrotation Xrotation
			JOINT rankle
			{
				OFFSET 0.019056 -0.420046 -0.034562
				CHANNELS 3 Zrotation Yrotation Xrotation
				JOINT rtoe
				{
					OFFSET -0.034840 -0.062106 0.130323
					CHANNELS 3 Zrotation Yrotation Xrotation
					End Site
					{
						OFFSET 0.000000 0.000000 0.000000
					}
				}
			}
		}
	}
	JOINT lowerback
	{
		OFFSET 0.004439 0.124404 -0.038385
		CHANNELS 3 Zrotation Yrotation Xrotation
		JOINT upperback
		{
			OFFSET 0.004488 0.137956 0.026820
			CHANNELS 3 Zrotation Yrotation Xrotation
			JOINT chest
			{
				OFFSET -0.002265 0.056032 0.002855
				CHANNELS 3 Zrotation Yrotation Xrotation
				JOINT lowerneck
				{
					OFFSET -0.013390 0.211636 -0.033468
					CHANNELS 3 Zrotation Yrotation Xrotation
					JOINT upperneck
					{
						OFFSET 0.010113 0.088937 0.050410
						CHANNELS 3 Zrotation Yrotation Xrotation
						End Site
						{
							OFFSET 0.000000 0.000000 0.000000
						}
					}
				}
				JOINT lclavicle
				{
					OFFSET 0.071702 0.114000 -0.018898
					CHANNELS 3 Zrotation Yrotation Xrotation
					JOINT lshoulder
					{
						OFFSET 0.122921 0.045205 -0.019046
						CHANNELS 3 Zrotation Yrotation Xrotation
						JOINT lelbow
						{
							OFFSET 0.255332 -0.015649 -0.022946
							CHANNELS 3 Zrotation Yrotation Xrotation
							JOINT lwrist
							{
								OFFSET 0.265709 0.012698 -0.007375
								CHANNELS 3 Zrotation Yrotation Xrotation
								End Site
								{
									OFFSET 0.000000 0.000000 0.000000
								}
							}
						}
					}
				}
				JOINT rclavicle
				{
					OFFSET -0.082954 0.112472 -0.023707
					CHANNELS 3 Zrotation Yrotation Xrotation
					JOINT rshoulder
					{
						OFFSET -0.113228 0.046853 -0.008472
						CHANNELS 3 Zrotation Yrotation Xrotation
						JOINT relbow
						{
							OFFSET -0.260127 -0.014369 -0.031269
							CHANNELS 3 Zrotation Yrotation Xrotation
							JOINT rwrist
							{
								OFFSET -0.269108 0.006794 -0.006027
								CHANNELS 3 Zrotation Yrotation Xrotation
								End Site
								{
									OFFSET 0.000000 0.000000 0.000000
								}
							}
						}
					}
				}
			}
		}
	}
}
MOTION
Frames: 14
Frame Time: 0.033333
0.169053 0.707924 0.917457 87.182038 -2.150171 74.346264 1.423389 3.745612 -7.094854 -6.405261 -2.283262 46.234282 7.076061 20.817117 -27.181945 0.000000 -0.000000 0.000000 -4.391277 -3.916902 -9.361283 4.051683 4.637353 48.640532 -3.286335 -14.873058 -27.112398 0.000000 -0.000000 0.000000 -0.159277 1.253426 13.719684 0.884669 -6.082710 8.029335 1.678596 0.069591 -5.196104 -2.173791 3.017655 0.803771 5.199538 7.854581 -7.986013 -2.535595 -30.749136 -4.369238 -8.275406 -25.939776 -12.022706 13.805923 -26.516258 -6.728310 -7.824408 -10.874593 14.078995 4.994220 34.036468 0.951270 5.303191 38.759261 -20.172778 -15.969555 21.068212 -5.990110 5.527769 8.779958 9.319709 
0.167187 0.708327 0.916892 86.926751 -2.183909 74.570629 1.363201 3.658636 -7.589212 -6.504827 -2.155170 46.502440 7.167088 21.079329 -27.098206 0.000000 -0.000000 0.000000 -4.298216 -3.687600 -9.979746 4.111269 4.755465 48.982397 -3.362774 -15.053977 -26.917451 0.000000 -0.000000 0.000000 -0.229098 1.297195 13.800634 0.879146 -6.012818 7.960514 1.654619 0.093148 -4.972258 -2.185191 3.057689 0.724651 5.061823 7.753735 -8.284022 -2.222029 -30.723255 -4.496198 -8.089355 -26.154475 -11.941455 13.853486 -26.617429 -6.896285 -5.467631 -10.796915 12.816788 4.409796 33.954558 0.359725 6.675155 39.019459 -19.613794 -16.737939 20.637258 -7.885555 1.923325 8.145924 7.296060 
0.165154 0.709096 0.916545 86.767781 -2.202250 74.766571 1.249938 3.720779 -8.074207 -6.453291 -2.153815 46.791084 7.118655 21.213300 -27.066538 0.000000 -0.000000 0.000000 -4.228467 -3.550994 -10.491950 4.052517 4.780442 49.289413 -3.338289 -15.198898 -26.833102 0.000000 -0.000000 0.000000 -0.226146 1.218406 14.211069 0.822722 -5.959657 7.704669 1.594250 0.253094 -4.983362 -2.337098 3.142959 0.134065 5.218873 7.904756 -7.936560 -2.206946 -30.801730 -4.422108 -7.764257 -26.244946 -11.931326 13.519592 -26.739564 -6.386773 -0.806471 -11.735536 11.900108 4.582616 34.083850 0.678807 6.355308 38.944463 -20.799419 -16.212531 20.110240 -10.095937 -3.752019 9.508834 6.863173 
0.162954 0.709859 0.916290 86.769132 -2.142631 74.826811 1.124549 3.518054 -8.277138 -6.204437 -2.135393 46.811615 7.223622 21.284785 -26.943529 0.000000 -0.000000 0.000000 -4.100132 -3.400618 -10.777931 3.924226 4.820806 49.393611 -3.447389 -15.255846 -26.669335 0.000000 -0.000000 0.000000 -0.259520 1.180911 14.777551 0.821211 -5.969688 7.491794 1.629903 0.215745 -5.020240 -2.421178 3.337234 -0.085437 5.276535 8.187023 -7.905956 -2.099463 -30.773690 -4.546679 -7.883469 -26.389486 -11.834926 13.885374 -26.910654 -6.616834 -0.957746 -11.630471 11.352989 4.759009 33.923564 0.558610 6.328963 39.023662 -20.974686 -16.651031 19.566234 -10.637828 -2.998578 9.430693 6.816260 
0.160683 0.710544 0.916274 86.809946 -2.100049 74.968201 0.991015 3.198365 -8.674278 -6.087250 -2.127025 46.932496 7.333787 21.498606 -26.710066 0.000000 -0.000000 0.000000 -3.978302 -3.263301 -11.133482 3.850134 4.820098 49.505897 -3.497973 -15.415438 -26.286525 0.000000 -0.000000 0.000000 -0.339115 1.141897 15.208593 0.842731 -5.988645 7.201231 1.654250 0.150195 -4.889803 -2.450552 3.412314 -0.221955 5.206314 8.223179 -7.988726 -2.005456 -30.630355 -4.643894 -8.050937 -26.697994 -11.758738 13.967582 -26.977027 -6.725818 0.317703 -11.669206 11.039391 4.584912 33.590272 0.362091 6.913074 39.049443 -20.467741 -17.186198 19.476279 -10.777219 -4.636567 9.400742 6.283398 
0.158532 0.711312 0.916175 86.827098 -1.976722 75.239196 0.908396 2.851344 -9.248337 -5.799909 -1.989073 47.153941 7.232859 21.516883 -26.567411 0.000000 -0.000000 0.000000 -3.772407 -3.106085 -11.577921 3.731403 4.831292 49.434248 -3.507141 -15.561239 -26.194625 0.000000 -0.000000 0.000000 -0.267913 1.127086 15.249734 0.815920 -6.063741 7.208286 1.704515 0.103485 -4.912999 -2.616822 3.396471 -0.210660 5.278302 8.362213 -7.980117 -2.129453 -30.814200 -4.611635 -8.319201 -26.711912 -11.595240 14.408406 -26.848120 -6.781358 0.286747 -11.579234 11.172815 4.385931 33.557658 0.338849 7.213265 38.778480 -20.199174 -17.285604 19.101120 -10.514540 -4.684850 9.505089 6.527202 
0.156261 0.712079 0.916234 86.777726 -1.900759 75.301338 0.870190 2.726597 -9.501125 -5.704776 -2.013335 47.161671 7.333147 21.526137 -26.307084 0.000000 -0.000000 0.000000 -3.596513 -2.973546 -11.804879 3.788956 5.083651 49.387745 -3.585872 -15.667021 -26.064820 0.000000 -0.000000 0.000000 -0.279334 1.067843 15.686236 0.796357 -6.122367 7.022998 1.664228 0.114871 -5.122817 -2.549315 3.086888 -0.169539 5.534855 8.351387 -7.386591 -2.370292 -30.926131 -4.322473 -8.242255 -26.772212 -11.550500 14.291873 -26.560040 -6.469142 0.475841 -11.682280 10.927540 4.502997 33.492894 0.502296 7.433867 38.757439 -20.007851 -17.096561 18.498080 -10.221992 -4.818419 9.389391 6.472541 
0.154356 0.712386 0.916403 86.623962 -1.850632 75.300002 0.888346 2.721798 -9.639215 -5.693623 -2.050466 47.163743 7.523054 21.661905 -26.081116 0.000000 -0.000000 0.000000 -3.459158 -2.871015 -12.062229 3.827646 5.048833 49.595780 -3.599558 -15.846991 -25.742038 0.000000 -0.000000 0.000000 -0.405576 1.023489 16.101997 0.853302 -6.135437 6.657111 1.651285 0.027849 -5.145003 -2.247028 2.975142 0.125002 5.438746 8.252826 -6.696613 -2.406580 -30.735490 -4.074858 -8.563893 -26.953694 -11.552237 14.345208 -26.360220 -6.411575 0.855722 -11.409431 10.688624 4.441298 33.136909 0.474662 8.709406 39.303168 -19.166355 -17.882281 18.212932 -9.963948 -6.186098 8.467339 6.390733 
0.152658 0.712678 0.916627 86.290886 -1.816675 75.324008 0.983265 2.797392 -9.786702 -5.636995 -1.884250 47.205018 7.379231 21.595946 -26.052556 0.000000 -0.000000 0.000000 -3.319124 -2.754733 -12.163385 3.765249 5.215077 49.415403 -3.559622 -15.721090 -25.820183 0.000000 -0.000000 0.000000 -0.521675 1.090746 16.250546 0.875271 -6.095683 6.744264 1.759156 0.095272 -5.156136 -2.373125 2.827381 0.308298 5.563855 8.019984 -6.735357 -2.476048 -30.658328 -4.241694 -8.812484 -27.088655 -11.409713 14.312503 -26.164320 -6.368234 0.835152 -11.704247 10.810839 4.731117 33.297093 0.518896 8.380259 39.371470 -19.352388 -17.226925 17.633900 -9.993061 -5.134668 9.171183 5.923528 
0.151133 0.713069 0.916674 86.020790 -1.755278 75.261398 1.171015 2.952853 -9.854003 -5.777630 -1.747423 47.285184 7.444945 21.692044 -26.123344 0.000000 -0.000000 0.000000 -3.237279 -2.676977 -12.248496 3.891920 5.252363 49.509998 -3.562439 -15.709810 -25.639848 0.000000 -0.000000 0.000000 -0.577062 1.094669 16.280787 0.862280 -6.061618 6.865406 1.763208 0.055619 -4.956543 -2.324992 2.868392 0.355062 5.430300 7.911083 -6.746231 -2.574599 -30.632599 -4.262206 -8.752301 -27.067833 -11.409335 14.380837 -26.232251 -6.488831 0.774497 -11.124827 11.238432 4.805117 33.363077 0.496694 8.686667 39.479824 -19.070991 -17.311114 17.756357 -9.800474 -5.470821 8.468647 6.191924 
0.149789 0.713200 0.916694 85.820388 -1.726101 75.267362 1.243794 3.194537 -9.925335 -5.912151 -1.901321 47.233375 7.423913 21.850557 -26.075797 0.000000 -0.000000 0.000000 -3.208932 -2.734041 -12.340410 3.986455 5.337045 49.426330 -3.517310 -15.735521 -25.447718 0.000000 -0.000000 0.000000 -0.737404 1.146922 16.337812 0.981049 -6.067312 6.822174 1.691047 0.079702 -4.708055 -2.324758 2.799041 0.188623 5.477331 7.919860 -6.564379 -2.678592 -30.631028 -4.167676 -8.353129 -27.047873 -11.321979 13.688765 -26.366462 -5.696501 5.042762 -11.450129 10.230381 4.963011 33.221182 0.442838 8.927216 39.534329 -18.728784 -17.099207 18.424798 -9.384219 -11.838181 9.168147 6.215430 
0.147893 0.713681 0.916757 85.679112 -1.619303 75.286077 1.418567 3.151338 -9.959376 -5.887543 -1.655953 47.099178 7.537713 21.631902 -26.046742 0.000000 -0.000000 0.000000 -3.178110 -2.709454 -12.458971 4.037348 5.249435 49.341842 -3.606206 -15.415676 -25.304960 0.000000 -0.000000 0.000000 -0.753610 1.162661 16.380129 0.923948 -6.079051 7.200508 1.759367 0.053161 -4.859635 -2.159943 2.957559 0.226179 5.160093 7.642287 -6.631219 -2.402733 -30.562075 -4.566762 -8.818572 -27.054211 -11.254986 14.371288 -26.650469 -6.492649 0.864141 -11.165771 11.032065 5.201026 33.424417 0.466962 8.376882 39.275062 -19.008013 -16.920251 18.386555 -9.602473 -5.418105 8.455348 6.656530 
0.146229 0.714014 0.916786 85.648772 -1.539818 75.352132 1.491213 3.149451 -10.209427 -6.015767 -1.698061 47.196798 7.638002 21.653194 -26.054287 0.000000 -0.000000 0.000000 -3.214278 -2.786065 -12.641700 4.212616 5.119310 49.253124 -3.522118 -15.247023 -25.307146 0.000000 -0.000000 0.000000 -0.793379 1.175479 16.440555 0.960918 -6.090417 7.179497 1.743909 0.000402 -4.811167 -2.119995 2.873541 0.393513 5.037166 7.499436 -6.566277 -2.422389 -30.496437 -4.529982 -8.746065 -27.104837 -11.193751 14.381772 -26.920390 -6.185993 1.664353 -11.243871 11.097620 5.198570 33.263430 0.400317 8.794693 39.450794 -18.680931 -17.503553 18.410215 -9.567735 -6.653929 8.354224 6.686653 
0.144896 0.714331 0.917107 85.704245 -1.503557 75.304034 1.518005 3.065006 -10.191723 -5.996218 -1.637999 47.044037 7.613150 21.493019 -25.939040 0.000000 -0.000000 0.000000 -3.253948 -2.803997 -12.669227 4.204343 5.049208 49.194397 -3.639133 -15.182866 -25.365628 0.000000 -0.000000 0.000000 -0.853516 1.201475 16.555549 0.954495 -6.130129 7.333860 1.746620 0.015516 -4.921773 -2.054729 2.830213 0.760416 5.180500 7.342310 -6.631422 -2.487525 -30.554711 -4.585825 -8.619490 -27.088878 -11.052948 14.390542 -27.147080 -6.221207 1.498918 -11.373898 11.430420 5.310156 33.341195 0.445520 8.495792 39.050462 -18.618222 -17.473600 18.472481 -9.570123 -6.537486 8.543672 6.818948 
